# xmcd
#
# Track frame offsets:
#	150
#	11289
#	23997
#	39660
#	52539
#	61053
#	74487
#	94410
#	107280
#	120357
#	131943
#	142674
#	154791
#	168306
#	191643
#	202626
#	213300
#	224670
#	240387
#	253722
#
# Disc length: 3547 seconds
#
# Revision: 3
# Processed by: cddbd v1.5.2PL0 Copyright (c) Steve Scherf et al.
# Submitted via: audiograbber 1.83.01
#
DISCID=0a0dd914
DTITLE=Various Artist - Années 60 Cd1
DYEAR=2004
DGENRE=Misc
TTITLE0=Equals, (The) - Baby Come Back
TTITLE1=Herman Hermits - No Milk Today
TTITLE2=Mungo Jerry - in the Summertime
TTITLE3=Easybeats, (The) - Friday on My Mind
TTITLE4=Box Tops, (The) - the Letter
TTITLE5=Los Bravos - Black is Black
TTITLE6=Animals, (The) - House of the Rising Sun
TTITLE7=Shangri-Las, (The) - Leader of the Pack
TTITLE8=Turtles, (The) - Happy Together
TTITLE9=Pat Boone - Speedy Gonzales
TTITLE10=Rivingtons, (The) - Papa Oom Mow Mow
TTITLE11=Tokens, (The) - the Lion Sleeps Tonight
TTITLE12=Marmalade, (The) - Ob-La-Di, Ob-La-Da
TTITLE13=Savage Young Beatles, (The) - Ya Ya
TTITLE14=Drifters, (The) - Save the Last Dance for Me
TTITLE15=Overlanders, (The) - Michelle
TTITLE16=Savage Young Beatles, (The) - Let's Dance
TTITLE17=Tony Burrows of the Flowerpot Men - Lets Go in Yon Francisco
TTITLE18=Bj Thomas - Raindrops Keep Fallin' on My Head
TTITLE19=Tremoloes, (The) - Suddenly You Love Me
EXTD=
EXTT0=
EXTT1=
EXTT2=
EXTT3=
EXTT4=
EXTT5=
EXTT6=
EXTT7=
EXTT8=
EXTT9=
EXTT10=
EXTT11=
EXTT12=
EXTT13=
EXTT14=
EXTT15=
EXTT16=
EXTT17=
EXTT18=
EXTT19=
PLAYORDER=
